<svg xmlns="http://www.w3.org/2000/svg" viewBox="0 0 416 467" fill="none" preserveAspectRatio="xMidYMid meet" role="img">
<g clip-path="url(#e3cd0227-bcec-4398-aaf6-068f6c0eaddc)">
<path fill-rule="evenodd" clip-rule="evenodd" d="M260.06 159.6C252.98 159.6 242.09 159.6 242.09 159.6C218.25 163.81 222.1 186.76 222.1 193.49C222.1 234.14 222.01 266.71 222.01 256C222.01 273.93 218.85 274.24 216.01 280C211.06 290.06 211.73 305.87 211.73 300.2C211.73 353.11 235.55 349 239.01 349C249.14 349 274.05 345.11 280.85 277.7C281.14 274.86 281.58 272.89 283.61 272.89C285.36 272.89 286.23 274.17 286.23 277.6C280.11 345.19 259.11 374.98 220.62 374.98C193.39 374.98 174.27 360.52 169.81 321.78C169.46 318.71 169.01 314.86 169.01 312C169.01 294.2 200.58 278.4 201.01 276C201.48 273.38 199.77 273.04 194.96 273C192.11 273 189.41 273 187.01 273C178.55 273 178.46 266.79 178.46 264C178.46 247.89 178.38 193.43 178.38 193.43L178.36 193.37C178.36 165.99 167.6 159.6 143.98 159.6H138.99C138.99 159.6 134.62 160.09 134.62 155.68C134.62 152.28 138.99 152.38 138.99 152.38C145.31 152.08 151.55 152.06 156.8 151.06C182.3 146.2 208.61 115.41 213.32 84.2801C213.32 84.2801 213.22 82.1401 217.72 82.1401C222.2 82.1401 222.09 84.2801 222.09 84.2801V131.33H222.11C222.37 143.02 232 152.44 243.95 152.69C243.95 152.69 258.5 152.71 260.13 152.71C263.94 152.68 265.99 152.54 265.99 156.18C266 160.17 263.11 159.6 260.06 159.6Z" fill="#000000"></path>
<path d="M208 3C238.81 3 264.64 10.9 289.31 27.88C313.82 44.74 334.2 68.67 352.58 92.02C383.65 131.48 413 168.76 413 233.5C413 298.24 383.65 335.52 352.59 374.98C334.21 398.33 313.82 422.26 289.32 439.12C264.64 456.1 238.81 464 208 464C177.19 464 151.36 456.1 126.69 439.13C102.18 422.27 81.8 398.34 63.42 374.99C32.35 335.52 3 298.23 3 233.5C3 168.76 32.35 131.48 63.41 92.02C81.79 68.67 102.18 44.74 126.68 27.88C151.36 10.9 177.19 3 208 3ZM208 0C141.25 0 102.36 37.69 61.06 90.16C29.91 129.73 0 167.96 0 233.5C0 299.04 29.91 337.27 61.06 376.84C102.36 429.31 141.25 467 208 467C274.75 467 313.64 429.31 354.94 376.84C386.09 337.27 416 299.04 416 233.5C416 167.96 386.09 129.73 354.94 90.16C313.64 37.69 274.75 0 208 0Z" fill="#878B54"></path>
</g>
<defs>
<clipPath id="e3cd0227-bcec-4398-aaf6-068f6c0eaddc">
<rect width="416" height="467" fill="white"></rect>
</clipPath>
</defs>
</svg>